<!-- 粗体 -->
<svg t="1704714286529" class="icon" viewBox="0 0 1024 1024" version="1.1" xmlns="http://www.w3.org/2000/svg" p-id="6897" width="200" height="200"><path d="M341.333333 170.666667v682.666666H256V170.666667z" fill="#2c2c2c" p-id="6898"></path><path d="M576 170.666667a192 192 0 1 1 0 384H341.333333a85.333333 85.333333 0 0 1-85.333333-85.333334V256a85.333333 85.333333 0 0 1 85.333333-85.333333h234.666667z m0 85.333333H341.333333v213.333333h234.666667a106.666667 106.666667 0 1 0 0-213.333333z" fill="#2c2c2c" p-id="6899"></path><path d="M576 469.333333a192 192 0 1 1 0 384H341.333333a85.333333 85.333333 0 0 1-85.333333-85.333333v-213.333333a85.333333 85.333333 0 0 1 85.333333-85.333334h234.666667z m0 85.333334H341.333333v213.333333h234.666667a106.666667 106.666667 0 1 0 0-213.333333z" fill="#2c2c2c" p-id="6900"></path></svg>