<svg t="1704715708637" class="icon" viewBox="0 0 1024 1024" version="1.1" xmlns="http://www.w3.org/2000/svg" p-id="12799" width="200" height="200"><path d="M797.504 655.36 752.64 655.36 540.672 138.048c0 0-6.272-8.576-18.944-9.92C508.992 126.784 489.216 134.72 489.216 134.72L262.912 655.36 253.632 655.36c-19.072 0-24.896 8.256-24.896 25.856 0 17.472 10.24 22.656 29.248 22.656l131.968 0c19.008 0 34.496-5.12 34.496-22.656S409.024 655.36 389.952 655.36L355.968 655.36l47.616-112.128 245.632 0L697.6 655.36l-54.656 0c-19.072 0-34.496 8.256-34.496 25.856 0 17.472 15.488 22.656 34.56 22.656l154.432 0C816.576 704 832 698.88 832 681.28 832 663.68 816.576 655.36 797.504 655.36zM425.664 494.72l104.64-235.072L629.696 494.72 425.664 494.72zM928 928l-768 0 0-128 768 0L928 928z" fill="#2c2c2c" p-id="12800"></path></svg>