<svg t="1704716605492" class="icon" viewBox="0 0 1024 1024" version="1.1" xmlns="http://www.w3.org/2000/svg" p-id="18246" width="200" height="200"><path d="M910.222222 142.904889V56.888889a56.888889 56.888889 0 0 0-56.888889-56.888889H56.888889a56.888889 56.888889 0 0 0-56.888889 56.888889v796.444444a56.888889 56.888889 0 0 0 56.888889 56.888889h86.072889v-56.888889H56.888889V56.888889h796.444444v86.016h56.888889z" fill="#2c2c2c" p-id="18247"></path><path d="M170.666667 170.666667v796.444444h796.444444V170.666667H170.666667z m0-56.888889h796.444444a56.888889 56.888889 0 0 1 56.888889 56.888889v796.444444a56.888889 56.888889 0 0 1-56.888889 56.888889H170.666667a56.888889 56.888889 0 0 1-56.888889-56.888889V170.666667a56.888889 56.888889 0 0 1 56.888889-56.888889z" fill="#2c2c2c" p-id="18248"></path><path d="M415.288889 369.777778v76.458666l-141.255111 129.820445L415.288889 705.877333v76.458667L227.555556 607.118222V544.199111zM739.555556 369.777778v76.458666l141.255111 129.820445L739.555556 705.877333v76.458667l187.733333-175.217778V544.199111z" fill="#2c2c2c" p-id="18249"></path><path d="M539.420444 800.426667l-54.840888-15.246223 117.873777-423.025777 54.784 15.246222z" fill="#2c2c2c" p-id="18250"></path></svg>